# xmcd CD database file
#
# Track frame offsets:
#	150
#	22702
#	49745
#	82335
#	115718
#	145735
#	167759
#
# Disc length: 2728 seconds
#
# Revision: 0
# Processed by: cddbd v1.5.2PL0 Copyright (c) Steve Scherf et al.
# Submitted via: CDex 1.70beta2
#
DISCID=510aa607
DTITLE=Juan Sebastián Monsalve - Bunde Nebuloso
DYEAR=2001
DGENRE=Jazz
TTITLE0=Valentina
TTITLE1=Yuma en Guagua
TTITLE2=Tumba número siete
TTITLE3=Currulao acurrucao
TTITLE4=Tre' punta'
TTITLE5=Bunde Nebuloso
TTITLE6=Quizá el último vuelo
EXTD=YEAR: 2001
EXTT0=
EXTT1=
EXTT2=
EXTT3=
EXTT4=
EXTT5=
EXTT6=
PLAYORDER=
